<svg width="351" height="379" viewBox="0 0 351 379" fill="none" xmlns="http://www.w3.org/2000/svg">
<g clip-path="url(#clip0_23_4443)">
<path d="M151.881 121.599C151.618 118.969 150.762 116.433 149.378 114.181C147.994 111.93 146.118 110.021 143.89 108.6C141.662 107.179 139.141 106.282 136.517 105.976C133.893 105.67 131.234 105.964 128.739 106.835L130.006 106.964C124.325 108.101 119.277 111.327 115.858 116.007C114.188 118.346 113.04 121.017 112.492 123.839C111.944 126.66 112.009 129.567 112.682 132.362C114.118 137.912 118.356 142.727 123.78 144.574C126.796 145.601 130.034 145.727 133.218 145.835C135.285 145.905 137.39 145.968 139.383 145.414C141.947 144.62 144.2 143.048 145.832 140.916C147.449 138.793 148.735 136.436 149.647 133.928C151.191 130.004 152.301 125.795 151.881 121.599Z" fill="#3A3E4E"/>
<path d="M196.919 377.303C192.415 360.356 202.416 343.838 214.102 332.403C220.33 326.309 227.266 321.012 234.03 315.54C240.52 310.346 246.701 304.777 252.54 298.861C263.816 287.314 273.651 274.118 280.165 259.284C286.359 245.178 289.287 229.813 287.837 214.422C286.461 199.824 281.232 185.466 271.612 174.266C270.413 172.871 269.152 171.533 267.829 170.253C267.119 169.564 266.032 170.65 266.743 171.34C277.485 181.776 283.738 195.919 285.854 210.633C288.036 225.806 285.787 241.275 280.116 255.461C274.075 270.573 264.469 284.057 253.328 295.825C247.718 301.713 241.749 307.25 235.457 312.402C228.737 317.941 221.755 323.173 215.356 329.092C203.563 340 192.965 355.004 194.421 371.894C194.59 373.859 194.93 375.805 195.437 377.711C195.497 377.901 195.628 378.061 195.803 378.157C195.978 378.252 196.183 378.276 196.375 378.223C196.567 378.17 196.731 378.044 196.833 377.873C196.934 377.701 196.965 377.497 196.919 377.303V377.303Z" fill="#F0F0F0"/>
<path d="M244.081 280.826C236.984 268.652 231.556 255.579 227.944 241.958C224.32 228.339 222.508 214.303 222.553 200.21C222.605 186.119 224.315 171.674 228.681 158.236C232.825 145.482 240.25 133.319 252.038 126.36C258.049 122.832 264.912 121.018 271.881 121.117C279.241 121.187 286.5 123.125 293.132 126.264C299.627 129.338 305.567 133.48 311.053 138.099C316.284 142.494 321.166 147.29 325.654 152.443C334.545 162.674 341.81 174.52 345.867 187.508C350.096 201.044 350.837 215.849 346.913 229.549C343.143 242.707 334.886 253.922 324.749 262.931C313.793 272.667 300.816 279.742 287.73 286.164C284.454 287.771 281.161 289.341 277.868 290.912C276.976 291.337 277.755 292.663 278.644 292.239C292.442 285.659 306.377 279.022 318.678 269.835C329.531 261.73 339.205 251.554 344.961 239.16C351.047 226.052 352.294 211.149 349.772 197.007C347.306 183.186 341.121 170.251 332.844 158.985C328.73 153.412 324.159 148.192 319.177 143.38C314.066 138.33 308.485 133.779 302.511 129.789C290.264 121.78 274.949 116.943 260.435 121.069C247.532 124.737 237.601 135.08 231.692 146.803C228.384 153.364 226.155 160.421 224.57 167.581C223.022 174.637 221.982 181.795 221.456 188.999C219.348 217.749 224.979 246.538 237.766 272.37C239.323 275.503 240.986 278.58 242.754 281.601C242.861 281.77 243.028 281.891 243.222 281.938C243.415 281.985 243.62 281.955 243.792 281.855C243.964 281.754 244.09 281.59 244.144 281.398C244.198 281.207 244.175 281.001 244.081 280.826Z" fill="#F0F0F0"/>
<path d="M234.352 265.969C227.255 253.796 221.828 240.723 218.215 227.101C214.592 213.483 212.779 199.446 212.825 185.354C212.876 171.262 214.586 156.818 218.953 143.38C223.097 130.626 230.521 118.463 242.309 111.503C248.321 107.975 255.183 106.162 262.152 106.26C269.513 106.33 276.771 108.269 283.403 111.407C289.899 114.481 295.838 118.624 301.325 123.242C306.556 127.638 311.437 132.434 315.925 137.587C324.817 147.818 332.081 159.663 336.139 172.651C340.368 186.187 341.109 200.993 337.184 214.692C333.415 227.851 325.158 239.066 315.02 248.075C304.065 257.811 291.087 264.886 278.001 271.307C274.726 272.914 271.433 274.485 268.14 276.055C267.248 276.481 268.026 277.806 268.915 277.382C282.714 270.803 296.649 264.165 308.949 254.979C319.803 246.873 329.477 236.698 335.232 224.303C341.318 211.196 342.566 196.292 340.043 182.151C337.578 168.33 331.393 155.395 323.115 144.129C319.002 138.556 314.431 133.336 309.449 128.524C304.338 123.474 298.757 118.923 292.782 114.933C280.535 106.924 265.22 102.087 250.706 106.213C237.803 109.88 227.872 120.224 221.963 131.947C218.656 138.508 216.427 145.564 214.841 152.724C213.294 159.78 212.254 166.938 211.728 174.143C209.619 202.892 215.251 231.682 228.037 257.514C229.595 260.647 231.258 263.724 233.026 266.745C233.132 266.913 233.3 267.034 233.493 267.081C233.687 267.129 233.891 267.099 234.063 266.998C234.235 266.898 234.362 266.734 234.416 266.542C234.469 266.35 234.447 266.145 234.352 265.969Z" fill="#F0F0F0"/>
<path d="M94.5165 237.168C93.9747 236.403 93.607 235.529 93.4394 234.607C93.2717 233.685 93.3082 232.737 93.5462 231.831C93.7842 230.924 94.218 230.081 94.817 229.361C95.4159 228.64 96.1655 228.06 97.0129 227.66L114.768 172.038L127.133 178.465L105.793 231.119C106.369 232.588 106.386 234.217 105.842 235.698C105.298 237.179 104.23 238.409 102.84 239.154C101.45 239.9 99.835 240.11 98.3009 239.743C96.7669 239.377 95.4203 238.461 94.5165 237.168H94.5165Z" fill="#FFB6B6"/>
<path d="M109.022 179.73C108.852 179.353 108.765 178.945 108.768 178.532C108.77 178.118 108.861 177.711 109.036 177.336L115.117 164.255C115.717 162.229 117.095 160.523 118.95 159.512C120.805 158.501 122.984 158.267 125.011 158.862C127.038 159.456 128.747 160.83 129.763 162.683C130.778 164.536 131.019 166.716 130.43 168.746L128.398 183.076C128.34 183.485 128.194 183.877 127.971 184.224C127.748 184.572 127.453 184.867 127.106 185.091C126.758 185.314 126.367 185.46 125.958 185.518C125.55 185.576 125.133 185.545 124.737 185.428L110.825 181.304C110.429 181.187 110.063 180.985 109.752 180.714C109.44 180.442 109.192 180.106 109.022 179.73Z" fill="#3A3E4E"/>
<path d="M160.316 181.937C156.09 193.008 157.17 204.619 162.374 216.651H125.509C126.99 208.09 126.389 200.134 120.9 193.598L160.316 181.937Z" fill="#FFB6B6"/>
<path d="M117.17 161.594L128.08 153.654L145.934 148.693L160.812 151.67L161.686 159.895C162.75 169.901 162.288 180.01 160.316 189.876L121.633 198.808L117.666 191.861C117.666 191.861 108.739 182.93 115.682 173.006L117.17 161.594Z" fill="#3A3E4E"/>
<path d="M211.933 106.063C212.177 106.968 212.219 107.915 212.057 108.838C211.895 109.761 211.532 110.638 210.995 111.405C210.458 112.173 209.759 112.814 208.948 113.282C208.136 113.751 207.232 114.035 206.299 114.116L170.383 160.139L161.009 149.824L199.261 107.828C199.229 106.251 199.776 104.716 200.8 103.516C201.823 102.315 203.251 101.532 204.813 101.314C206.375 101.096 207.963 101.459 209.275 102.335C210.587 103.21 211.533 104.536 211.933 106.063Z" fill="#FFB6B6"/>
<path d="M178.436 154.915C178.465 155.327 178.405 155.741 178.26 156.128C178.115 156.514 177.888 156.865 177.595 157.156L167.361 167.319C166.096 169.012 164.213 170.135 162.122 170.44C160.032 170.746 157.906 170.21 156.211 168.949C154.515 167.689 153.388 165.808 153.077 163.717C152.766 161.627 153.296 159.498 154.55 157.798L161.419 145.06C161.615 144.696 161.887 144.38 162.217 144.131C162.547 143.882 162.926 143.707 163.329 143.618C163.732 143.529 164.15 143.528 164.553 143.615C164.957 143.702 165.337 143.875 165.668 144.123L177.29 152.814C177.621 153.061 177.895 153.377 178.093 153.739C178.291 154.102 178.408 154.503 178.436 154.915Z" fill="#3A3E4E"/>
<path d="M117.218 367.229H122.867L125.555 345.427H117.217L117.218 367.229Z" fill="#FFB6B6"/>
<path d="M115.305 364.441L124.235 363.907V367.736L132.726 373.602C133.145 373.892 133.461 374.308 133.627 374.79C133.793 375.272 133.801 375.795 133.649 376.282C133.498 376.769 133.194 377.194 132.784 377.496C132.373 377.798 131.877 377.961 131.367 377.961H120.736L118.903 374.175L118.187 377.961H114.179L115.305 364.441Z" fill="#3A3E4E"/>
<path d="M157.156 367.229H162.805L165.493 345.427H157.155L157.156 367.229Z" fill="#FFB6B6"/>
<path d="M155.243 364.441L164.173 363.907V367.736L172.664 373.602C173.083 373.892 173.399 374.308 173.565 374.79C173.731 375.272 173.739 375.795 173.587 376.282C173.436 376.769 173.132 377.194 172.722 377.496C172.311 377.798 171.815 377.961 171.305 377.961H160.674L158.841 374.175L158.125 377.961H154.117L155.243 364.441Z" fill="#3A3E4E"/>
<path d="M172.164 245.078V256.195L171.079 269.776C171.079 269.776 170.736 281.635 170.321 290.99C170.07 296.676 169.788 301.435 169.543 302.05C169.241 302.803 169.312 304.858 169.486 307.014C169.691 309.509 170.029 312.142 170.085 313.023C170.193 314.668 169.322 321.732 169.322 321.732C169.322 321.732 168.35 339.447 166.937 340.861C165.523 342.275 166.937 346.297 166.937 346.297C160.311 351.184 151.944 345.211 151.944 345.211C153.793 342.265 150.859 322.158 150.859 322.158C150.859 322.158 150.429 315.293 149.559 313.449C148.688 311.604 148.468 300.083 148.468 300.083V283.019C148.468 283.019 146.184 279.525 145.862 277.896C145.539 276.267 145.862 270.509 145.862 270.509L143.475 262.466L141.842 268.767C141.842 268.767 137.613 286.374 136.85 288.546C136.087 290.718 137.28 292.896 137.28 292.896C137.28 292.896 138.371 296.246 137.28 297.783C136.603 298.746 136.084 299.811 135.744 300.939C135.744 300.939 135.186 307.352 134.208 309.648C133.23 311.943 132.365 314.77 132.365 314.77C132.365 314.77 132.595 319.104 131.617 320.083C130.639 321.061 130.317 325.954 130.317 325.954C130.317 325.954 130.532 331.492 129.226 333.449C127.92 335.405 127.92 346.491 127.92 346.491C125.656 347.945 123.047 348.771 120.359 348.886C117.671 349 115.001 348.398 112.621 347.142C112.621 347.142 113.911 345.933 112.933 340.298C111.956 334.663 113.635 319.32 113.635 319.32C113.635 319.32 113.42 315.426 114.505 313.684C115.591 311.943 113.957 308.577 114.393 307.055C114.828 305.534 116.134 297.271 116.134 297.271C116.134 297.271 115.591 276.948 115.591 275.862C115.462 273.929 114.94 272.042 114.055 270.319C113.077 268.582 114.055 255.975 114.055 255.975C114.055 255.975 116.359 249.459 115.591 248.045C114.823 246.631 116.103 244.131 116.103 244.131C116.103 244.131 114.91 241.195 116.103 240.652C117.296 240.109 117.516 237.937 117.516 237.937L118.345 227.394C118.345 227.394 118.658 222.609 119.651 222.394C120.644 222.179 120.209 220.335 121.187 219.028C121.664 218.145 121.992 217.19 122.16 216.201C122.298 215.596 122.426 214.966 122.534 214.361C122.841 212.722 123.031 211.308 123.031 211.308C129.441 216.636 163.147 212.901 163.183 212.901C165.323 213.368 167.868 220.801 169.706 227.281C171.341 233.072 172.168 239.061 172.164 245.078Z" fill="#3A3E4E"/>
<path d="M147.647 134.704C150.104 126.618 145.544 118.07 137.462 115.612C129.38 113.153 120.836 117.716 118.379 125.802C115.922 133.888 120.482 142.436 128.564 144.894C136.646 147.352 145.19 142.79 147.647 134.704Z" fill="#FFB6B6"/>
<path d="M115.726 132.92L121.648 131.687L122.739 123.823L124.784 131.034L127.614 130.445L128.251 125.858L129.444 130.064L150.477 125.685C150.044 123.602 149.205 121.625 148.008 119.867C146.812 118.109 145.28 116.603 143.502 115.437C141.724 114.271 139.734 113.466 137.645 113.07C135.556 112.673 133.409 112.692 131.327 113.125L128.279 113.76C124.075 114.635 120.39 117.146 118.036 120.739C115.682 124.332 114.851 128.714 115.726 132.92Z" fill="#3A3E4E"/>
<path d="M176.316 17.8529L176.277 17.9276C168.553 14.3671 159.756 13.916 151.708 16.6678C143.66 19.4196 136.979 25.1633 133.048 32.709C129.118 40.2548 128.239 49.0242 130.594 57.2005C132.949 65.3768 138.358 72.3334 145.699 76.629L145.66 76.7037L204.48 107.376L235.136 48.525C237.154 44.6603 238.391 40.4357 238.776 36.0925C239.161 31.7493 238.687 27.3727 237.381 23.213C236.074 19.0533 233.961 15.192 231.162 11.8498C228.364 8.50763 224.934 5.75012 221.069 3.7349C217.205 1.71969 212.981 0.486286 208.64 0.105213C204.298 -0.27586 199.925 0.202862 195.768 1.51402C191.612 2.82517 187.755 4.94305 184.417 7.74657C181.079 10.5501 178.327 13.9843 176.316 17.8529Z" fill="#FFA800"/>
<path d="M228.721 355.557L228.711 355.576C226.758 354.676 224.535 354.562 222.501 355.258C220.467 355.953 218.778 357.405 217.785 359.312C216.791 361.219 216.569 363.436 217.164 365.502C217.76 367.569 219.127 369.327 220.982 370.413L220.972 370.432L235.839 378.184L243.587 363.31C244.097 362.333 244.41 361.265 244.508 360.167C244.605 359.069 244.485 357.963 244.155 356.912C243.825 355.86 243.291 354.884 242.583 354.039C241.876 353.195 241.009 352.498 240.032 351.988C239.055 351.479 237.988 351.167 236.89 351.071C235.793 350.974 234.688 351.096 233.637 351.427C232.587 351.758 231.612 352.294 230.768 353.003C229.924 353.711 229.229 354.579 228.721 355.557Z" fill="#FFA800"/>
<path d="M31.5064 166.955V167.039C23.0119 167.454 15.0023 171.122 9.13692 177.283C3.27156 183.445 -3.94905e-06 191.628 0 200.137C3.94906e-06 208.646 3.27159 216.829 9.13695 222.991C15.0023 229.152 23.0119 232.82 31.5065 233.235V233.319L97.836 233.319L97.836 166.955C97.8402 162.595 96.9855 158.277 95.3206 154.247C93.6558 150.217 91.2136 146.556 88.1335 143.471C85.0535 140.386 81.396 137.939 77.3702 136.27C73.3444 134.6 69.0292 133.741 64.6712 133.741C60.3133 133.741 55.998 134.6 51.9722 136.27C47.9464 137.939 44.2889 140.386 41.2089 143.471C38.1288 146.556 35.6866 150.217 34.0218 154.247C32.357 158.277 31.5022 162.595 31.5064 166.955V166.955Z" fill="#FFA800"/>
<path d="M340.627 379H9.19754C9.03585 379 8.88079 378.936 8.76646 378.821C8.65213 378.707 8.58789 378.552 8.58789 378.39C8.58789 378.228 8.65213 378.073 8.76646 377.959C8.88079 377.844 9.03585 377.78 9.19754 377.78H340.627C340.789 377.78 340.944 377.844 341.058 377.959C341.173 378.073 341.237 378.228 341.237 378.39C341.237 378.552 341.173 378.707 341.058 378.821C340.944 378.936 340.789 379 340.627 379Z" fill="#CACACA"/>
<path d="M287.859 229.65C294.634 229.608 301.184 227.215 306.393 222.881C311.696 218.419 315.186 212.172 316.207 205.315C316.806 201.439 316.613 197.481 315.639 193.681C315.58 193.491 315.448 193.332 315.274 193.236C315.099 193.141 314.893 193.117 314.701 193.17C314.509 193.223 314.345 193.349 314.244 193.52C314.143 193.692 314.112 193.896 314.158 194.09C315.8 200.541 315.059 207.369 312.072 213.318C309.777 217.766 306.305 221.498 302.036 224.107C297.766 226.716 292.862 228.102 287.859 228.113C287.66 228.12 287.471 228.204 287.333 228.348C287.195 228.491 287.117 228.682 287.117 228.882C287.117 229.081 287.195 229.273 287.333 229.416C287.471 229.559 287.66 229.643 287.859 229.65V229.65Z" fill="#F0F0F0"/>
<path d="M169.25 30.0315C164.879 25.8806 157.978 25.8915 152.931 28.7811C147.267 32.0239 144.699 38.7246 144.829 45.0161C144.975 52.097 148.435 58.5084 152.903 63.8187C157.665 69.3362 163.207 74.1287 169.352 78.0445C175.481 82.038 182.113 85.1999 189.073 87.4473C189.93 87.7237 190.791 87.9856 191.657 88.233C191.85 88.2793 192.055 88.2485 192.226 88.147C192.398 88.0456 192.523 87.8815 192.576 87.6893C192.629 87.4972 192.605 87.2919 192.51 87.1169C192.415 86.9419 192.255 86.8107 192.065 86.7511C178.698 82.9295 166.546 75.7154 156.787 65.8089C152.141 61.0484 148.013 55.3269 146.743 48.6677C145.622 42.7868 146.861 35.9585 151.417 31.7695C155.846 27.6973 163.597 26.7805 168.164 31.1183C168.881 31.7991 169.969 30.7142 169.25 30.0315V30.0315Z" fill="white"/>
<path d="M30.3706 183.121C24.4671 182.387 18.9229 186.541 16.6236 191.789C14.0451 197.673 15.7835 204.456 19.5237 209.43C23.6428 214.907 29.882 218.1 36.404 219.794C43.4049 221.614 50.8367 222.105 58.0434 221.769C66.5626 221.374 74.9696 219.664 82.9668 216.7C83.8855 216.359 83.488 214.873 82.5585 215.218C69.2456 220.164 54.4251 221.724 40.4255 219.113C34.1678 217.946 27.7946 215.719 23.1313 211.214C18.906 207.133 15.9169 200.951 17.1885 194.982C18.4521 189.05 24.0889 183.877 30.3706 184.658C31.3491 184.78 31.3403 183.242 30.3706 183.121Z" fill="white"/>
<path d="M128.587 107.84C130.014 102.13 127.249 96.004 122.967 91.9668C118.684 87.9296 113.097 85.6094 107.566 83.6004C103.156 81.9983 97.9897 80.6048 93.9981 83.0723C90.7906 85.055 89.3992 88.9063 87.5657 92.2024C84.0716 98.4833 78.4344 103.296 71.6852 105.76C64.9359 108.224 57.5257 108.175 50.8096 105.622C53.1768 112.498 61.3308 115.861 68.5842 115.394C75.8376 114.927 82.537 111.585 89.2938 108.905C96.0506 106.225 103.567 104.154 110.511 106.3C113.443 107.206 116.108 108.823 119.01 109.818C121.913 110.813 125.309 111.109 127.895 109.458" fill="#3A3E4E"/>
<path d="M230.179 317.002L225.234 308.295C225.128 308.126 224.96 308.006 224.767 307.958C224.573 307.911 224.369 307.941 224.197 308.041C224.025 308.142 223.898 308.306 223.844 308.498C223.791 308.69 223.813 308.895 223.908 309.071L228.852 317.778C228.959 317.947 229.127 318.067 229.32 318.115C229.514 318.162 229.718 318.132 229.89 318.031C230.062 317.931 230.189 317.767 230.242 317.575C230.296 317.383 230.273 317.178 230.179 317.002Z" fill="#F0F0F0"/>
</g>
<defs>
<clipPath id="clip0_23_4443">
<rect width="351" height="379" fill="white"/>
</clipPath>
</defs>
</svg>
