<svg width="71" height="71" viewBox="0 0 71 71" fill="none" xmlns="http://www.w3.org/2000/svg">
<g clip-path="url(#clip0_92_149)">
<path d="M35.5 71C55.1061 71 71 55.1061 71 35.5C71 15.8939 55.1061 0 35.5 0C15.8939 0 0 15.8939 0 35.5C0 55.1061 15.8939 71 35.5 71Z" fill="#4B8078"/>
<path d="M70.9291 33.2806L47.8218 10.169L22.7373 57.9375L35.796 70.9962C55.2656 70.837 71.0001 55.0071 71.0001 35.5C71.0001 34.7544 70.9743 34.015 70.9291 33.2806Z" fill="#005248"/>
<path d="M49.5909 23.6923C51.7766 23.6923 53.5487 21.9204 53.5487 19.7344C53.5487 17.5485 51.7768 15.7766 49.5909 15.7766C49.5352 15.7766 49.4812 15.7826 49.4262 15.785C49.5328 15.3396 49.5909 14.8754 49.5909 14.3972C49.5909 11.1186 46.9331 8.46073 43.6544 8.46073C41.6329 8.46073 39.8488 9.47194 38.7767 11.0151C38.0786 10.3978 37.1637 10.0199 36.1587 10.0199C35.2816 10.0199 34.4739 10.3086 33.8177 10.7915C32.7328 9.37488 31.0248 8.46049 29.1025 8.46049C26.5981 8.46049 24.4576 10.0122 23.5853 12.2058C23.0699 11.96 22.4954 11.8185 21.8866 11.8185C19.7011 11.819 17.9292 13.5909 17.9292 15.7768C17.9292 17.9628 19.7011 19.7347 21.887 19.7347L49.5909 23.6923Z" fill="white"/>
<path d="M49.5911 15.7768C49.5354 15.7768 49.4814 15.7828 49.4264 15.7852C49.533 15.3398 49.5911 14.8756 49.5911 14.3977C49.5911 11.119 46.9333 8.46119 43.6546 8.46119C41.6334 8.46119 39.849 9.4724 38.7769 11.0155C38.0788 10.398 37.164 10.0203 36.159 10.0203C35.9481 10.0203 35.7418 10.0378 35.54 10.07V21.6849L49.5911 23.6922C51.7768 23.6922 53.5489 21.9203 53.5489 19.7344C53.5489 17.5485 51.777 15.7768 49.5911 15.7768Z" fill="#D0D5D9"/>
<path d="M56.9629 27.6111H49.3054V19.7222H21.6943V55.292C21.6943 57.4321 23.4292 59.1667 25.569 59.1667H45.4306C47.5706 59.1667 49.3052 57.4318 49.3052 55.292V47.3333H56.9627C58.1797 47.3333 59.1663 46.3467 59.1663 45.1297V29.8147C59.1666 28.5977 58.18 27.6111 56.9629 27.6111ZM56.3823 42.3208C56.3823 43.2077 55.6632 43.9268 54.7763 43.9268H50.1175V31.0177H54.7763C55.6632 31.0177 56.3823 31.7368 56.3823 32.6237V42.3208Z" fill="#F0DEB4"/>
<path d="M56.9632 27.6111H49.3057V19.7222H35.54V59.1667H45.431C47.5711 59.1667 49.3057 57.4318 49.3057 55.292V47.3333H56.9632C58.1802 47.3333 59.1668 46.3467 59.1668 45.1297V29.8147C59.1668 28.5977 58.1802 27.6111 56.9632 27.6111ZM56.3825 42.3208C56.3825 43.2077 55.6634 43.9268 54.7765 43.9268H50.1178V31.0177H54.7765C55.6634 31.0177 56.3825 31.7368 56.3825 32.6237V42.3208Z" fill="#D8C49C"/>
<path d="M26.73 56.8614H44.2701C46.1598 56.8614 47.6919 55.3293 47.6919 53.4395V31.3506H23.3081V53.4395C23.3081 55.3295 24.8402 56.8614 26.73 56.8614Z" fill="#FFA800"/>
<path d="M35.54 31.3506V56.8614H44.2702C46.1599 56.8614 47.692 55.3293 47.692 53.4395V31.3506H35.54Z" fill="#CE8400"/>
</g>
<defs>
<clipPath id="clip0_92_149">
<rect width="71" height="71" fill="white"/>
</clipPath>
</defs>
</svg>
