<svg width="408" height="117" viewBox="0 0 408 117" fill="none" xmlns="http://www.w3.org/2000/svg">
<path d="M49.1211 63.9473H20.9961V93H6.34766V21.9062H52.6367V33.7715H20.9961V52.1309H49.1211V63.9473Z" fill="#4B8078"/>
<path d="M218.348 93V21.9062H243.25C251.876 21.9062 258.419 23.5664 262.879 26.8867C267.339 30.1745 269.568 35.0085 269.568 41.3887C269.568 44.8717 268.673 47.9479 266.883 50.6172C265.092 53.2539 262.602 55.1908 259.412 56.4277C263.058 57.3392 265.923 59.1784 268.006 61.9453C270.122 64.7122 271.18 68.0977 271.18 72.1016C271.18 78.9375 268.999 84.1133 264.637 87.6289C260.275 91.1445 254.057 92.9349 245.984 93H218.348ZM232.996 62.043V81.2324H245.545C248.995 81.2324 251.681 80.4186 253.602 78.791C255.555 77.1309 256.531 74.8522 256.531 71.9551C256.531 65.4447 253.162 62.1406 246.424 62.043H232.996ZM232.996 51.6914H243.836C251.225 51.5612 254.92 48.6152 254.92 42.8535C254.92 39.6309 253.976 37.3197 252.088 35.9199C250.232 34.4876 247.286 33.7715 243.25 33.7715H232.996V51.6914ZM322.352 78.3516H296.668L291.785 93H276.209L302.674 21.9062H316.248L342.859 93H327.283L322.352 78.3516ZM300.623 66.4863H318.396L309.461 39.875L300.623 66.4863ZM375.818 66.9746H364.148V93H349.5V21.9062H375.916C384.314 21.9062 390.792 23.778 395.35 27.5215C399.907 31.265 402.186 36.5547 402.186 43.3906C402.186 48.2409 401.128 52.2936 399.012 55.5488C396.928 58.7715 393.755 61.3431 389.49 63.2637L404.871 92.3164V93H389.148L375.818 66.9746ZM364.148 55.1094H375.965C379.643 55.1094 382.492 54.1816 384.51 52.3262C386.528 50.4382 387.537 47.8503 387.537 44.5625C387.537 41.2096 386.577 38.5729 384.656 36.6523C382.768 34.7318 379.855 33.7715 375.916 33.7715H364.148V55.1094Z" fill="#4B8078"/>
<g clip-path="url(#clip0_16_1439)">
<path d="M95.5 93C115.106 93 131 77.1061 131 57.5C131 37.8939 115.106 22 95.5 22C75.8939 22 60 37.8939 60 57.5C60 77.1061 75.8939 93 95.5 93Z" fill="#4B8078"/>
<path d="M130.929 55.2806L107.822 32.169L82.7373 79.9375L95.796 92.9962C115.266 92.837 131 77.0071 131 57.5C131 56.7544 130.974 56.015 130.929 55.2806Z" fill="#005248"/>
<path d="M109.591 45.6923C111.777 45.6923 113.549 43.9204 113.549 41.7344C113.549 39.5485 111.777 37.7766 109.591 37.7766C109.535 37.7766 109.481 37.7826 109.426 37.785C109.533 37.3396 109.591 36.8754 109.591 36.3972C109.591 33.1186 106.933 30.4607 103.654 30.4607C101.633 30.4607 99.8488 31.4719 98.7767 33.0151C98.0786 32.3978 97.1637 32.0199 96.1587 32.0199C95.2816 32.0199 94.4739 32.3086 93.8177 32.7915C92.7328 31.3749 91.0248 30.4605 89.1025 30.4605C86.5981 30.4605 84.4576 32.0122 83.5853 34.2058C83.0699 33.96 82.4954 33.8185 81.8866 33.8185C79.7011 33.819 77.9292 35.5909 77.9292 37.7768C77.9292 39.9628 79.7011 41.7347 81.887 41.7347L109.591 45.6923Z" fill="white"/>
<path d="M109.591 37.7768C109.535 37.7768 109.481 37.7828 109.426 37.7852C109.533 37.3398 109.591 36.8756 109.591 36.3977C109.591 33.119 106.933 30.4612 103.655 30.4612C101.633 30.4612 99.849 31.4724 98.7769 33.0155C98.0788 32.398 97.164 32.0203 96.159 32.0203C95.9481 32.0203 95.7418 32.0378 95.54 32.07V43.6849L109.591 45.6922C111.777 45.6922 113.549 43.9203 113.549 41.7344C113.549 39.5485 111.777 37.7768 109.591 37.7768Z" fill="#D0D5D9"/>
<path d="M116.963 49.6111H109.305V41.7222H81.6943V77.292C81.6943 79.4321 83.4292 81.1667 85.569 81.1667H105.431C107.571 81.1667 109.305 79.4318 109.305 77.292V69.3333H116.963C118.18 69.3333 119.166 68.3467 119.166 67.1297V51.8147C119.167 50.5977 118.18 49.6111 116.963 49.6111ZM116.382 64.3208C116.382 65.2077 115.663 65.9268 114.776 65.9268H110.118V53.0177H114.776C115.663 53.0177 116.382 53.7368 116.382 54.6237V64.3208Z" fill="#F0DEB4"/>
<path d="M116.963 49.6111H109.306V41.7222H95.54V81.1667H105.431C107.571 81.1667 109.306 79.4318 109.306 77.292V69.3333H116.963C118.18 69.3333 119.167 68.3467 119.167 67.1297V51.8147C119.167 50.5977 118.18 49.6111 116.963 49.6111ZM116.382 64.3208C116.382 65.2077 115.663 65.9268 114.777 65.9268H110.118V53.0177H114.777C115.663 53.0177 116.382 53.7368 116.382 54.6237V64.3208Z" fill="#D8C49C"/>
<path d="M86.73 78.8614H104.27C106.16 78.8614 107.692 77.3293 107.692 75.4395V53.3506H83.3081V75.4395C83.3081 77.3295 84.8402 78.8614 86.73 78.8614Z" fill="#FFA800"/>
<path d="M95.54 53.3506V78.8614H104.27C106.16 78.8614 107.692 77.3293 107.692 75.4395V53.3506H95.54Z" fill="#CE8400"/>
</g>
<g clip-path="url(#clip1_16_1439)">
<path d="M171.5 93C191.106 93 207 77.1061 207 57.5C207 37.8939 191.106 22 171.5 22C151.894 22 136 37.8939 136 57.5C136 77.1061 151.894 93 171.5 93Z" fill="#4B8078"/>
<path d="M206.929 55.2806L183.822 32.169L158.737 79.9375L171.796 92.9962C191.266 92.837 207 77.0071 207 57.5C207 56.7544 206.974 56.015 206.929 55.2806Z" fill="#005248"/>
<path d="M185.591 45.6923C187.777 45.6923 189.549 43.9204 189.549 41.7344C189.549 39.5485 187.777 37.7766 185.591 37.7766C185.535 37.7766 185.481 37.7826 185.426 37.785C185.533 37.3396 185.591 36.8754 185.591 36.3972C185.591 33.1186 182.933 30.4607 179.654 30.4607C177.633 30.4607 175.849 31.4719 174.777 33.0151C174.079 32.3978 173.164 32.0199 172.159 32.0199C171.282 32.0199 170.474 32.3086 169.818 32.7915C168.733 31.3749 167.025 30.4605 165.102 30.4605C162.598 30.4605 160.458 32.0122 159.585 34.2058C159.07 33.96 158.495 33.8185 157.887 33.8185C155.701 33.819 153.929 35.5909 153.929 37.7768C153.929 39.9628 155.701 41.7347 157.887 41.7347L185.591 45.6923Z" fill="white"/>
<path d="M185.591 37.7768C185.535 37.7768 185.481 37.7828 185.426 37.7852C185.533 37.3398 185.591 36.8756 185.591 36.3977C185.591 33.119 182.933 30.4612 179.655 30.4612C177.633 30.4612 175.849 31.4724 174.777 33.0155C174.079 32.398 173.164 32.0203 172.159 32.0203C171.948 32.0203 171.742 32.0378 171.54 32.07V43.6849L185.591 45.6922C187.777 45.6922 189.549 43.9203 189.549 41.7344C189.549 39.5485 187.777 37.7768 185.591 37.7768Z" fill="#D0D5D9"/>
<path d="M192.963 49.6111H185.305V41.7222H157.694V77.292C157.694 79.4321 159.429 81.1667 161.569 81.1667H181.431C183.571 81.1667 185.305 79.4318 185.305 77.292V69.3333H192.963C194.18 69.3333 195.166 68.3467 195.166 67.1297V51.8147C195.167 50.5977 194.18 49.6111 192.963 49.6111ZM192.382 64.3208C192.382 65.2077 191.663 65.9268 190.776 65.9268H186.118V53.0177H190.776C191.663 53.0177 192.382 53.7368 192.382 54.6237V64.3208Z" fill="#F0DEB4"/>
<path d="M192.963 49.6111H185.306V41.7222H171.54V81.1667H181.431C183.571 81.1667 185.306 79.4318 185.306 77.292V69.3333H192.963C194.18 69.3333 195.167 68.3467 195.167 67.1297V51.8147C195.167 50.5977 194.18 49.6111 192.963 49.6111ZM192.382 64.3208C192.382 65.2077 191.663 65.9268 190.777 65.9268H186.118V53.0177H190.777C191.663 53.0177 192.382 53.7368 192.382 54.6237V64.3208Z" fill="#D8C49C"/>
<path d="M162.73 78.8614H180.27C182.16 78.8614 183.692 77.3293 183.692 75.4395V53.3506H159.308V75.4395C159.308 77.3295 160.84 78.8614 162.73 78.8614Z" fill="#FFA800"/>
<path d="M171.54 53.3506V78.8614H180.27C182.16 78.8614 183.692 77.3293 183.692 75.4395V53.3506H171.54Z" fill="#CE8400"/>
</g>
<defs>
<clipPath id="clip0_16_1439">
<rect width="71" height="71" fill="white" transform="translate(60 22)"/>
</clipPath>
<clipPath id="clip1_16_1439">
<rect width="71" height="71" fill="white" transform="translate(136 22)"/>
</clipPath>
</defs>
</svg>
