<svg width="194" height="63" viewBox="0 0 194 63" fill="none" xmlns="http://www.w3.org/2000/svg">
<path d="M23.5286 62.5119C22.4829 62.512 21.4607 62.2021 20.5911 61.6214C19.7214 61.0407 19.0435 60.2152 18.6428 59.2493L0.401951 15.2146C-0.133964 13.9207 -0.133984 12.4669 0.401895 11.173C0.937775 9.87912 1.96567 8.85107 3.25948 8.31499L22.3649 0.402186C23.0055 0.136722 23.6921 5.75188e-05 24.3856 1.81524e-08C25.079 -5.74825e-05 25.7656 0.136493 26.4062 0.401851C27.0469 0.66721 27.6289 1.05618 28.1192 1.54654C28.6095 2.0369 28.9984 2.61904 29.2636 3.25971L47.5045 47.2963C48.0395 48.5898 48.0391 50.0429 47.5033 51.3362C46.9675 52.6294 45.9401 53.657 44.6469 54.1931L25.5415 62.1096C24.9035 62.3747 24.2195 62.5114 23.5286 62.5119V62.5119ZM24.386 2.84101C24.066 2.84101 23.7488 2.90445 23.4534 3.02861L4.34702 10.9414C4.0513 11.0639 3.78261 11.2435 3.55629 11.4698C3.32997 11.6962 3.15046 11.9649 3.02801 12.2606C2.90555 12.5563 2.84256 12.8733 2.84262 13.1934C2.84269 13.5135 2.90581 13.8304 3.02837 14.1261L21.2692 58.1636C21.5172 58.7603 21.9918 59.2344 22.5888 59.4818C23.1858 59.7291 23.8566 59.7296 24.4539 59.4831L43.5594 51.5649C43.8551 51.4424 44.1238 51.2628 44.3501 51.0365C44.5765 50.8101 44.756 50.5414 44.8784 50.2457C45.0009 49.95 45.0639 49.633 45.0638 49.3129C45.0637 48.9928 45.0006 48.6759 44.8781 48.3802L26.6372 4.34726C26.4525 3.90201 26.1402 3.52137 25.7396 3.25333C25.339 2.98528 24.868 2.84181 24.386 2.84101V2.84101Z" fill="#D2D2EC"/>
<path opacity="0.7" d="M27.8413 7.25146L30.4679 6.16349L37.6901 23.5994L35.0635 24.6874L27.8413 7.25146Z" fill="url(#paint0_linear_92_191)"/>
<path opacity="0.7" d="M46.2905 44.3679L43.6639 45.4559L35.4886 25.719L38.1152 24.6311L46.2905 44.3679Z" fill="url(#paint1_linear_92_191)"/>
<path d="M40.3474 32.3733C34.8833 34.639 30.3211 37.7621 27.334 41.5268L19.6323 22.9262C23.1454 18.8446 27.617 15.6994 32.6457 13.7727C38.1097 11.5069 43.6299 10.4103 48.32 11.0493L56.0234 29.649C50.6531 29.2446 45.2664 30.1807 40.3474 32.3733V32.3733Z" fill="#D2D2EC"/>
<g opacity="0.4">
<path opacity="0.9" d="M40.3474 32.3733C34.8833 34.639 30.3211 37.7621 27.334 41.5268L19.6323 22.9262C23.1454 18.8446 27.617 15.6994 32.6457 13.7727C38.1097 11.5069 43.6299 10.4103 48.32 11.0493L56.0234 29.649C50.6531 29.2446 45.2664 30.1807 40.3474 32.3733V32.3733Z" fill="url(#paint2_linear_92_191)"/>
<path opacity="0.7" d="M40.3474 32.3733C34.8833 34.639 30.3211 37.7621 27.334 41.5268L19.6323 22.9262C23.1454 18.8446 27.617 15.6994 32.6457 13.7727C38.1097 11.5069 43.6299 10.4103 48.32 11.0493L56.0234 29.649C50.6531 29.2446 45.2664 30.1807 40.3474 32.3733V32.3733Z" fill="url(#paint3_linear_92_191)"/>
</g>
<path d="M42.8568 38.044C36.9423 38.044 31.5281 39.1868 27.332 41.5196V22.7123C32.1394 20.2864 37.4739 19.0921 42.8568 19.2367C48.7712 19.2367 54.2914 20.3333 58.3806 22.7168V41.5241C53.5741 39.0962 48.2397 37.9004 42.8568 38.044ZM73.0706 38.0612L77.8558 22.9353C77.8803 22.8331 77.9364 22.7413 78.0161 22.673C78.0959 22.6046 78.1952 22.5632 78.2999 22.5546H80.7015C80.8072 22.5694 80.9069 22.6127 80.9899 22.6797C81.0729 22.7468 81.1361 22.8351 81.1728 22.9353L84.8977 32.4785C84.9702 32.6688 85.1605 32.6869 85.2239 32.4785L88.9216 22.9353C88.9583 22.8351 89.0215 22.7468 89.1045 22.6797C89.1875 22.6127 89.2872 22.5694 89.3928 22.5546H91.7945C91.8992 22.5632 91.9985 22.6046 92.0783 22.673C92.158 22.7413 92.2141 22.8331 92.2386 22.9353L96.9694 38.0612C96.9965 38.1184 97.0081 38.1818 97.0031 38.2449C96.9981 38.308 96.9766 38.3687 96.9409 38.4209C96.9051 38.4732 96.8563 38.5151 96.7993 38.5427C96.7423 38.5702 96.6791 38.5823 96.616 38.5778H93.7612C93.6631 38.5823 93.5666 38.552 93.4887 38.4923C93.4108 38.4326 93.3564 38.3474 93.3352 38.2515L90.2991 28.4274C90.2538 28.2371 90.0363 28.2371 89.9729 28.4274L86.3477 38.179C86.3177 38.2932 86.2508 38.3942 86.1573 38.4664C86.0639 38.5385 85.9492 38.5777 85.8311 38.5778H84.1545C83.8917 38.5778 83.7557 38.4328 83.656 38.179L79.9584 28.4274C79.8859 28.2371 79.6956 28.2371 79.6502 28.4274L76.5417 38.2515C76.5183 38.3497 76.4608 38.4364 76.3795 38.4962C76.2982 38.5559 76.1983 38.5848 76.0976 38.5778H73.3787C73.3185 38.5769 73.2594 38.5606 73.2072 38.5304C73.1551 38.5002 73.1115 38.4572 73.0806 38.4055C73.0497 38.3537 73.0326 38.2949 73.0308 38.2346C73.0291 38.1744 73.0428 38.1147 73.0706 38.0612V38.0612ZM97.8757 32.6235C97.8505 31.3637 98.2011 30.1249 98.8826 29.065C99.5642 28.0052 100.546 27.1724 101.703 26.6727C102.86 26.173 104.139 26.0291 105.378 26.2594C106.617 26.4897 107.759 27.0837 108.659 27.9656C109.559 28.8476 110.176 29.9776 110.431 31.2115C110.686 32.4455 110.568 33.7275 110.092 34.8941C109.616 36.0608 108.803 37.0592 107.757 37.762C106.711 38.4649 105.48 38.8404 104.22 38.8406C103.39 38.8689 102.563 38.7284 101.788 38.4276C101.014 38.1268 100.309 37.672 99.7162 37.0907C99.1231 36.5094 98.6541 35.8138 98.3377 35.0459C98.0214 34.278 97.8642 33.4539 97.8757 32.6235V32.6235ZM107.301 32.6235C107.26 32.0159 107.043 31.4335 106.675 30.9483C106.307 30.4631 105.805 30.0962 105.231 29.893C104.656 29.6899 104.035 29.6593 103.444 29.8051C102.853 29.9508 102.317 30.2666 101.903 30.7133C101.49 31.16 101.216 31.7182 101.115 32.3188C101.015 32.9195 101.093 33.5364 101.339 34.0933C101.586 34.6502 101.99 35.1228 102.502 35.4527C103.014 35.7825 103.611 35.9553 104.22 35.9496C105.067 35.9142 105.865 35.5441 106.44 34.9204C107.014 34.2968 107.317 33.4706 107.283 32.6235H107.301ZM116.146 37.599C115.911 37.4087 115.702 37.4812 115.702 37.8075V38.1156C115.702 38.2303 115.658 38.3406 115.579 38.4234C115.499 38.5061 115.391 38.555 115.276 38.5597H113.065C112.949 38.5552 112.838 38.507 112.756 38.4246C112.674 38.3423 112.625 38.2319 112.621 38.1156V22.9896C112.625 22.8733 112.674 22.7629 112.756 22.6806C112.838 22.5983 112.949 22.55 113.065 22.5456H115.394C115.509 22.5502 115.617 22.5991 115.697 22.6819C115.776 22.7646 115.82 22.8749 115.82 22.9896V27.3036C115.82 27.6117 116.029 27.7023 116.364 27.4667C117.256 26.7985 118.34 26.4361 119.454 26.4335C122.681 26.4335 125.155 29.1524 125.155 32.6507C125.191 33.4419 125.069 34.2325 124.796 34.9759C124.523 35.7193 124.104 36.4007 123.563 36.9798C123.023 37.559 122.372 38.0244 121.65 38.3486C120.927 38.6728 120.147 38.8493 119.355 38.8678C118.165 38.8551 117.023 38.4032 116.146 37.599V37.599ZM121.947 32.6507C121.979 32.2225 121.923 31.7922 121.782 31.3867C121.641 30.9812 121.417 30.6093 121.125 30.2943C120.833 29.9793 120.479 29.728 120.086 29.5561C119.692 29.3842 119.268 29.2955 118.838 29.2955C118.409 29.2955 117.984 29.3842 117.59 29.5561C117.197 29.728 116.843 29.9793 116.551 30.2943C116.259 30.6093 116.036 30.9812 115.894 31.3867C115.753 31.7922 115.697 32.2225 115.73 32.6507C115.714 33.0694 115.782 33.487 115.929 33.8792C116.077 34.2714 116.301 34.6302 116.589 34.9348C116.876 35.2394 117.222 35.4836 117.605 35.6532C117.988 35.8227 118.401 35.9142 118.82 35.9224C119.243 35.913 119.659 35.82 120.045 35.6488C120.432 35.4775 120.78 35.2315 121.071 34.9247C121.362 34.618 121.589 34.2567 121.739 33.8617C121.889 33.4667 121.96 33.0459 121.947 32.6235V32.6507ZM127.104 23.6512C127.104 23.1705 127.294 22.7095 127.634 22.3695C127.974 22.0296 128.435 21.8387 128.916 21.8387C129.397 21.8387 129.858 22.0296 130.198 22.3695C130.538 22.7095 130.729 23.1705 130.729 23.6512C130.729 24.132 130.538 24.593 130.198 24.9329C129.858 25.2728 129.397 25.4638 128.916 25.4638C128.435 25.4638 127.974 25.2728 127.634 24.9329C127.294 24.593 127.104 24.132 127.104 23.6512ZM127.267 38.1518V27.1858C127.267 27.0711 127.311 26.9608 127.39 26.878C127.47 26.7952 127.578 26.7464 127.693 26.7417H130.022C130.082 26.7392 130.143 26.7488 130.2 26.7698C130.257 26.7908 130.309 26.8229 130.354 26.8641C130.399 26.9054 130.435 26.955 130.46 27.0102C130.485 27.0654 130.5 27.125 130.502 27.1858V38.1156C130.498 38.2319 130.449 38.3423 130.367 38.4246C130.285 38.507 130.174 38.5552 130.058 38.5597H127.693C127.578 38.555 127.47 38.5061 127.39 38.4234C127.311 38.3406 127.267 38.2303 127.267 38.1156V38.1518ZM133.094 34.5629V22.9896C133.094 22.8749 133.138 22.7646 133.218 22.6819C133.297 22.5991 133.405 22.5502 133.52 22.5456H135.849C135.966 22.55 136.076 22.5983 136.158 22.6806C136.241 22.7629 136.289 22.8733 136.293 22.9896V34.6354C136.293 35.3877 136.62 35.8861 137.444 35.8861C137.562 35.8861 137.675 35.9329 137.758 36.0162C137.842 36.0995 137.888 36.2124 137.888 36.3302V38.2606C137.884 38.3752 137.835 38.4836 137.752 38.563C137.669 38.6424 137.559 38.6867 137.444 38.6866C134.345 38.6866 133.094 37.6715 133.094 34.5629V34.5629ZM138.758 32.696C138.761 31.8914 138.923 31.0954 139.233 30.3532C139.544 29.611 139.998 28.9373 140.569 28.3705C141.14 27.8037 141.817 27.355 142.561 27.0498C143.306 26.7447 144.103 26.5892 144.908 26.5921C145.712 26.5951 146.508 26.7565 147.25 27.0672C147.993 27.3778 148.666 27.8316 149.233 28.4026C149.8 28.9736 150.249 29.6506 150.554 30.3951C150.859 31.1395 151.014 31.9368 151.011 32.7413C151.011 33.1673 150.894 33.5207 150.468 33.5207H142.365C142.157 33.5207 142.084 33.6385 142.103 33.8289C142.2 34.5129 142.553 35.1344 143.092 35.567C143.631 35.9996 144.314 36.2109 145.003 36.158C145.428 36.1643 145.849 36.0766 146.236 35.9011C146.623 35.7256 146.966 35.4667 147.241 35.143C147.326 35.0233 147.439 34.9262 147.57 34.8599C147.701 34.7936 147.847 34.7601 147.993 34.7623H150.159C150.54 34.7623 150.703 35.0252 150.558 35.3967C149.941 36.6548 148.917 37.6671 147.651 38.269C146.386 38.8709 144.954 39.027 143.589 38.7119C142.223 38.3968 141.005 37.6291 140.131 36.5336C139.257 35.438 138.78 34.0791 138.777 32.6779L138.758 32.696ZM147.359 31.6084C147.522 31.6084 147.595 31.5359 147.568 31.3456C147.448 30.7156 147.109 30.1481 146.612 29.7434C146.114 29.3388 145.49 29.123 144.849 29.1343C144.22 29.1337 143.609 29.3455 143.116 29.7353C142.622 30.1252 142.275 30.6702 142.13 31.2822C142.084 31.4453 142.13 31.6084 142.32 31.6084H147.359ZM152.969 38.1156V22.9896C152.969 22.8749 153.013 22.7646 153.093 22.6819C153.172 22.5991 153.28 22.5502 153.395 22.5456H160.817C164.207 22.5456 166.518 24.5213 166.518 27.8473C166.518 31.1734 163.899 33.2216 160.654 33.2216H156.721C156.662 33.2155 156.602 33.2229 156.547 33.2433C156.491 33.2638 156.44 33.2966 156.399 33.3395C156.358 33.3823 156.328 33.434 156.309 33.4905C156.291 33.5471 156.286 33.607 156.295 33.6657V38.1156C156.291 38.2319 156.242 38.3423 156.16 38.4246C156.078 38.507 155.967 38.5552 155.851 38.5597H153.404C153.288 38.5573 153.177 38.5095 153.096 38.4264C153.014 38.3434 152.969 38.2318 152.969 38.1156V38.1156ZM160.654 30.4846C161.329 30.4633 161.968 30.1759 162.431 29.6852C162.895 29.1945 163.146 28.5403 163.128 27.8655C163.138 27.5362 163.081 27.2084 162.96 26.9021C162.839 26.5958 162.656 26.3175 162.424 26.0842C162.191 25.8508 161.914 25.6674 161.608 25.5452C161.302 25.4229 160.975 25.3644 160.645 25.3732H156.685C156.404 25.3732 156.286 25.5182 156.286 25.7991V30.0859C156.286 30.3668 156.404 30.5118 156.685 30.5118L160.654 30.4846ZM167.66 32.6235C167.63 31.83 167.757 31.0384 168.036 30.2948C168.314 29.5511 168.738 28.8702 169.282 28.2917C169.826 27.7132 170.479 27.2486 171.204 26.9249C171.929 26.6013 172.712 26.425 173.505 26.4063C174.663 26.4127 175.778 26.8413 176.641 27.6117C176.85 27.802 177.085 27.7748 177.085 27.4939V27.1858C177.085 26.9501 177.276 26.7598 177.511 26.7598H179.723C179.839 26.7643 179.949 26.8125 180.032 26.8948C180.114 26.9772 180.162 27.0875 180.167 27.2039V34.9798C180.167 35.5689 180.375 35.8317 180.783 35.8861C180.885 35.8882 180.983 35.9284 181.056 35.9989C181.13 36.0693 181.175 36.1649 181.182 36.2668V38.315C181.182 38.4207 181.14 38.5222 181.065 38.5969C180.99 38.6717 180.889 38.7137 180.783 38.7137C179.224 38.7137 178.309 38.2697 177.792 37.3724C177.647 37.1368 177.484 37.0915 177.248 37.3271C176.756 37.8342 176.165 38.2356 175.512 38.5067C174.859 38.7778 174.158 38.913 173.451 38.9041C172.656 38.881 171.873 38.6991 171.148 38.3692C170.424 38.0392 169.773 37.5679 169.234 36.9828C168.694 36.3976 168.277 35.7106 168.007 34.962C167.736 34.2134 167.619 33.4183 167.66 32.6235ZM177.085 32.6235C177.118 32.1965 177.062 31.7674 176.921 31.3631C176.78 30.9587 176.557 30.5879 176.266 30.2737C175.975 29.9596 175.622 29.709 175.23 29.5376C174.838 29.3662 174.414 29.2777 173.986 29.2777C173.558 29.2777 173.134 29.3662 172.742 29.5376C172.349 29.709 171.996 29.9596 171.705 30.2737C171.414 30.5879 171.191 30.9587 171.05 31.3631C170.91 31.7674 170.854 32.1965 170.886 32.6235C170.854 33.0504 170.91 33.4796 171.05 33.8839C171.191 34.2883 171.414 34.6591 171.705 34.9732C171.996 35.2874 172.349 35.538 172.742 35.7094C173.134 35.8808 173.558 35.9693 173.986 35.9693C174.414 35.9693 174.838 35.8808 175.23 35.7094C175.622 35.538 175.975 35.2874 176.266 34.9732C176.557 34.6591 176.78 34.2883 176.921 33.8839C177.062 33.4796 177.118 33.0504 177.085 32.6235ZM182.278 42.7105V40.7801C182.283 40.6655 182.332 40.5571 182.415 40.4777C182.497 40.3983 182.608 40.354 182.722 40.3541C183.459 40.4093 184.193 40.2162 184.808 39.8055C185.422 39.3949 185.881 38.7904 186.112 38.0884C186.192 37.7852 186.159 37.4635 186.021 37.1821L181.689 27.3761C181.652 27.3106 181.634 27.2365 181.635 27.1614C181.636 27.0863 181.657 27.0128 181.695 26.9484C181.734 26.884 181.789 26.8309 181.855 26.7946C181.921 26.7583 181.995 26.74 182.07 26.7417H184.399C184.635 26.7417 184.78 26.932 184.87 27.1676L187.589 33.4391C187.78 33.9376 188.088 33.9104 188.296 33.4391L190.888 27.1495C190.979 26.9139 191.097 26.7689 191.332 26.7689H193.571C193.639 26.7653 193.708 26.7791 193.77 26.809C193.832 26.8389 193.885 26.884 193.925 26.9401C193.964 26.9962 193.989 27.0614 193.997 27.1297C194.005 27.198 193.996 27.2671 193.969 27.3308L189.511 37.88C187.888 41.7226 186.166 43.1546 182.722 43.1546C182.606 43.1501 182.496 43.1019 182.413 43.0195C182.331 42.9372 182.283 42.8268 182.278 42.7105V42.7105Z" fill="#D2D2EC"/>
<defs>
<linearGradient id="paint0_linear_92_191" x1="34.6106" y1="19.9728" x2="33.4314" y2="6.21491" gradientUnits="userSpaceOnUse">
<stop stop-color="#8F81C8"/>
<stop offset="0.302" stop-color="#504678" stop-opacity="0.616"/>
<stop offset="0.608" stop-color="#504678" stop-opacity="0.283"/>
<stop offset="0.852" stop-color="#504678" stop-opacity="0.076"/>
<stop offset="1" stop-color="#504678" stop-opacity="0"/>
</linearGradient>
<linearGradient id="paint1_linear_92_191" x1="38.7969" y1="29.8978" x2="39.5364" y2="45.3134" gradientUnits="userSpaceOnUse">
<stop stop-color="#8F81C8"/>
<stop offset="0.302" stop-color="#504678" stop-opacity="0.616"/>
<stop offset="0.608" stop-color="#504678" stop-opacity="0.283"/>
<stop offset="0.852" stop-color="#504678" stop-opacity="0.076"/>
<stop offset="1" stop-color="#504678" stop-opacity="0"/>
</linearGradient>
<linearGradient id="paint2_linear_92_191" x1="24.6186" y1="31.2078" x2="39.0503" y2="21.3695" gradientUnits="userSpaceOnUse">
<stop stop-color="#262639"/>
<stop offset="0.179" stop-color="#47477B" stop-opacity="0.872"/>
<stop offset="0.526" stop-color="#444479" stop-opacity="0.536"/>
<stop offset="1" stop-color="#494973" stop-opacity="0"/>
</linearGradient>
<linearGradient id="paint3_linear_92_191" x1="36.9996" y1="21.5904" x2="36.3595" y2="16.4705" gradientUnits="userSpaceOnUse">
<stop stop-color="#9999CA"/>
<stop offset="0.643" stop-color="#D2D2EC" stop-opacity="0.332"/>
<stop offset="1" stop-color="#D2D2EC" stop-opacity="0"/>
</linearGradient>
</defs>
</svg>
